HIERARCHY
ROOT joint_Root
{
	OFFSET 0.0 0.0 0.0
	CHANNELS 6 Xposition Yposition Zposition Zrotation Xrotation Yrotation 
	JOINT Hips
	{
		OFFSET -0.726466 93.3139 -2.00062
		CHANNELS 6 Xposition Yposition Zposition Zrotation Xrotation Yrotation 
		JOINT Spine
		{
			OFFSET 15.7357 0.0 0.0
			CHANNELS 6 Xposition Yposition Zposition Zrotation Xrotation Yrotation 
			JOINT Chest
			{
				OFFSET 8.98455 -0.406207 0.0
				CHANNELS 6 Xposition Yposition Zposition Zrotation Xrotation Yrotation 
				JOINT Neck
				{
					OFFSET 16.3773 0.0 0.0
					CHANNELS 6 Xposition Yposition Zposition Zrotation Xrotation Yrotation 
					JOINT Head
					{
						OFFSET 6.45672 0.0 0.0
						CHANNELS 6 Xposition Yposition Zposition Zrotation Xrotation Yrotation 
						End Site
						{
							OFFSET 0.0 0.0 0.0
						}
					}
				}
				JOINT Shoulder_L
				{
					OFFSET 12.9942 -0.242716 4.98039
					CHANNELS 6 Xposition Yposition Zposition Zrotation Xrotation Yrotation 
					JOINT UpperArm_L
					{
						OFFSET 5.34809 0.0 0.0
						CHANNELS 6 Xposition Yposition Zposition Zrotation Xrotation Yrotation 
						JOINT LowerArm_L
						{
							OFFSET 24.3286 1.87007e-05 0.0
							CHANNELS 6 Xposition Yposition Zposition Zrotation Xrotation Yrotation 
							JOINT Hand_L
							{
								OFFSET 22.2916 0.0 0.0
								CHANNELS 6 Xposition Yposition Zposition Zrotation Xrotation Yrotation 
								End Site
								{
									OFFSET 0.0 0.0 0.0
								}
							}
						}
					}
				}
				JOINT Shoulder_R
				{
					OFFSET 12.9945 -0.242716 -4.98039
					CHANNELS 6 Xposition Yposition Zposition Zrotation Xrotation Yrotation 
					JOINT UpperArm_R
					{
						OFFSET -5.34813 0.0 0.0
						CHANNELS 6 Xposition Yposition Zposition Zrotation Xrotation Yrotation 
						JOINT LowerArm_R
						{
							OFFSET -24.3289 0.000322201 0.0
							CHANNELS 6 Xposition Yposition Zposition Zrotation Xrotation Yrotation 
							JOINT Hand_R
							{
								OFFSET -22.2915 -0.000108084 0.0
								CHANNELS 6 Xposition Yposition Zposition Zrotation Xrotation Yrotation 
								End Site
								{
									OFFSET 0.0 0.0 0.0
								}
							}
						}
					}
				}
			}
		}
		JOINT UpperLeg_L
		{
			OFFSET -2.19248 -6.46944 0.0
			CHANNELS 6 Xposition Yposition Zposition Zrotation Xrotation Yrotation 
			JOINT LowerLeg_L
			{
				OFFSET 39.0811 0.0 -1.23785e-05
				CHANNELS 6 Xposition Yposition Zposition Zrotation Xrotation Yrotation 
				JOINT Foot_L
				{
					OFFSET 40.9854 0.0 -1.26872e-05
					CHANNELS 6 Xposition Yposition Zposition Zrotation Xrotation Yrotation 
					JOINT Toes_L
					{
						OFFSET 11.7543 0.0 0.0
						CHANNELS 6 Xposition Yposition Zposition Zrotation Xrotation Yrotation 
						End Site
						{
							OFFSET 0.0 0.0 0.0
						}
					}
				}
			}
		}
		JOINT UpperLeg_R
		{
			OFFSET -2.19251 6.46944 0.0
			CHANNELS 6 Xposition Yposition Zposition Zrotation Xrotation Yrotation 
			JOINT LowerLeg_R
			{
				OFFSET -39.0811 -0.00228153 -0.0401928
				CHANNELS 6 Xposition Yposition Zposition Zrotation Xrotation Yrotation 
				JOINT Foot_R
				{
					OFFSET -40.9854 0.0 0.0
					CHANNELS 6 Xposition Yposition Zposition Zrotation Xrotation Yrotation 
					JOINT Toes_R
					{
						OFFSET -11.7543 0.0 0.0
						CHANNELS 6 Xposition Yposition Zposition Zrotation Xrotation Yrotation 
						End Site
						{
							OFFSET 0.0 0.0 0.0
						}
					}
				}
			}
		}
	}
}
MOTION
Frames:	4
Frame Time:	0.0333333
0.000000 0.000000 0.000000 0.000000 0.000000 -0.000000 -2.708130 91.887800 0.893216 88.539000 -0.129238 2.640790 15.735700 0.000005 -0.000001 61.344800 85.486900 -56.193100 8.984550 -0.406207 -0.000000 0.388001 -4.658130 10.317000 16.377300 -0.000001 -0.000001 1.890960 0.505319 -1.055870 6.456720 -0.000001 -0.000000 -2.292030 2.142210 3.674140 12.994200 -0.242716 4.980390 -84.406800 -11.461100 -63.763600 5.348090 -0.000007 -0.000001 -74.346500 -58.552200 -108.211000 24.328600 0.000019 0.000005 3.125810 2.666600 -49.570800 22.291600 -0.000001 0.000005 20.054900 5.630590 -13.380800 12.994500 -0.242716 -4.980390 90.970000 -2.540170 -69.092200 -5.348130 -0.000001 -0.000004 -59.470500 72.084100 11.616600 -24.328900 0.000322 -0.000009 27.023200 1.832730 -86.412700 -22.291500 -0.000108 -0.000004 36.644100 5.679710 -22.758900 -2.192480 -6.469440 -0.000000 -168.155000 -18.009700 -1.485670 39.081100 -0.000007 -0.000012 -0.154074 0.427084 19.837500 40.985400 -0.000006 -0.000013 -8.464040 -0.768612 -62.878500 11.754300 -0.000000 0.000003 -0.000114 -0.001150 -16.621600 -2.192510 6.469440 -0.000001 174.554000 21.710700 179.579000 -39.081100 -0.002282 -0.040193 -0.089530 0.246986 20.603000 -40.985400 0.000008 0.000006 -4.438600 -0.634676 -65.510700 -11.754300 -0.000006 -0.000006 -0.002847 -0.038856 -18.153300
0.000000 0.000000 0.000000 0.000000 0.000000 -0.000000 -2.706210 91.892800 0.887672 88.532200 -0.145252 2.648100 15.735700 0.000005 -0.000001 61.412100 85.479200 -56.271100 8.984550 -0.406207 -0.000000 0.405916 -4.654680 10.296300 16.377300 -0.000001 -0.000001 1.883700 0.457052 -1.075480 6.456720 -0.000001 -0.000000 -2.267280 2.096120 3.685230 12.994200 -0.242716 4.980390 -84.384800 -11.485800 -63.721800 5.348090 -0.000007 -0.000001 -74.436300 -58.529400 -108.323000 24.328600 0.000019 0.000005 3.164000 2.704880 -49.512000 22.291600 -0.000001 0.000005 19.992400 5.629710 -13.314800 12.994500 -0.242716 -4.980390 90.971300 -2.542290 -69.081800 -5.348130 -0.000001 -0.000004 -59.465900 72.115000 11.596000 -24.328900 0.000322 -0.000009 27.090600 1.840860 -86.407200 -22.291500 -0.000108 -0.000004 36.655800 5.679920 -22.681500 -2.192480 -6.469440 -0.000000 -168.138000 -18.004200 -1.444930 39.081100 -0.000007 -0.000012 -0.155183 0.431399 19.784900 40.985400 -0.000006 -0.000013 -8.473760 -0.784210 -62.857300 11.754300 -0.000000 0.000003 -0.000111 -0.001125 -16.620600 -2.192510 6.469440 -0.000001 174.561000 21.706300 179.588000 -39.081100 -0.002282 -0.040193 -0.088757 0.245261 20.577400 -40.985400 0.000008 0.000006 -4.404900 -0.629671 -65.488100 -11.754300 -0.000006 -0.000006 -0.002628 -0.036314 -18.049800
0.000000 0.000000 0.000000 0.000000 0.000000 -0.000000 -2.707630 91.898600 0.891502 88.555800 -0.121058 2.645790 15.735700 0.000005 -0.000001 61.357200 85.466900 -56.228900 8.984550 -0.406207 -0.000000 0.423547 -4.672430 10.271700 16.377300 -0.000001 -0.000001 1.909850 0.458772 -1.109170 6.456720 -0.000001 -0.000000 -2.261410 2.058200 3.670770 12.994200 -0.242716 4.980390 -84.391100 -11.468800 -63.714300 5.348090 -0.000007 -0.000001 -74.589500 -58.492100 -108.492000 24.328600 0.000019 0.000005 3.165510 2.707980 -49.493200 22.291600 -0.000001 0.000005 20.008900 5.629630 -13.309000 12.994500 -0.242716 -4.980390 90.966300 -2.529620 -69.084700 -5.348130 -0.000001 -0.000004 -59.418100 72.109200 11.546000 -24.328900 0.000322 -0.000009 26.997200 1.849810 -86.375300 -22.291500 -0.000108 -0.000004 36.671400 5.679610 -22.793900 -2.192480 -6.469440 -0.000000 -168.168000 -18.018700 -1.426520 39.081100 -0.000007 -0.000012 -0.153423 0.427781 19.730500 40.985400 -0.000006 -0.000013 -8.466760 -0.786998 -62.824000 11.754300 -0.000000 0.000003 -0.000090 -0.000944 -16.613900 -2.192510 6.469440 -0.000001 174.550000 21.750900 179.584000 -39.081100 -0.002282 -0.040193 -0.085124 0.235316 20.598900 -40.985400 0.000008 0.000006 -4.244920 -0.626710 -65.509600 -11.754300 -0.000006 -0.000006 -0.002721 -0.037405 -18.094200
0.000000 0.000000 0.000000 0.000000 0.000000 -0.000000 -2.702950 91.895600 0.887594 88.529200 -0.161962 2.612230 15.735700 0.000005 -0.000001 61.441900 85.477600 -56.304700 8.984550 -0.406207 -0.000000 0.410763 -4.651660 10.289000 16.377300 -0.000001 -0.000001 1.940170 0.482407 -1.160450 6.456720 -0.000001 -0.000000 -2.257380 2.056660 3.646170 12.994200 -0.242716 4.980390 -84.385800 -11.468900 -63.693100 5.348090 -0.000007 -0.000001 -74.707800 -58.441800 -108.586000 24.328600 0.000019 0.000005 3.092910 2.646040 -49.489600 22.291600 -0.000001 0.000005 20.044300 5.630020 -13.337800 12.994500 -0.242716 -4.980390 90.976900 -2.559930 -69.104500 -5.348130 -0.000001 -0.000004 -59.577300 72.077100 11.696500 -24.328900 0.000322 -0.000009 27.038800 1.846660 -86.387900 -22.291500 -0.000108 -0.000004 36.622200 5.679740 -22.747800 -2.192480 -6.469440 -0.000000 -168.152000 -17.987400 -1.469440 39.081100 -0.000007 -0.000012 -0.154874 0.430998 19.765500 40.985400 -0.000006 -0.000013 -8.473560 -0.796636 -62.855400 11.754300 -0.000000 0.000003 -0.000116 -0.001164 -16.622100 -2.192510 6.469440 -0.000001 174.577000 21.749600 179.548000 -39.081100 -0.002282 -0.040193 -0.086662 0.239747 20.572200 -40.985400 0.000008 0.000006 -4.358250 -0.576258 -65.477500 -11.754300 -0.000006 -0.000006 -0.002618 -0.036204 -18.045400
